<svg version="1.1" viewBox="-5 -5 839 208" xmlns="http://www.w3.org/2000/svg"><text fill="navy" font-size="16" x="0" y="18">面食</text><text fill="navy" font-size="16" x="52" y="18">面条(Noodles)</text><text fill="navy" font-size="16" x="356" y="18">炒面(Stir-Fried Noodles with Vegetables, "Chow Mein")</text><text fill="navy" font-size="16" x="356" y="48">凉面(cold noodles in sauce)</text><text fill="navy" font-size="16" x="356" y="78">意大利面(spaghetti)</text><text fill="navy" font-size="16" x="52" y="108">包子/馒头类</text><text fill="navy" font-size="16" x="356" y="108">包子(steamed stuffed bun)</text><text fill="navy" font-size="16" x="356" y="138">馒头(steamed bun, "Manjuu")</text><text fill="navy" font-size="16" x="356" y="168">窝窝头(steamed bread of corn)</text><text fill="navy" font-size="16" x="52" y="198">饺子(Chinese dumpling, "Jiaozi")</text><path d="M 36.5 14.0 Q 44.25 14.0 52 14.0" fill="none" stroke="red" stroke-width="1" /><path d="M 36.5 14.0 Q 44.25 104.0 52 104.0" fill="none" stroke="red" stroke-width="1" /><path d="M 36.5 14.0 Q 44.25 194.0 52 194.0" fill="none" stroke="red" stroke-width="1" /><path d="M 169.5 14.0 Q 262.75 14.0 356 14.0" fill="none" stroke="red" stroke-width="1" /><path d="M 169.5 14.0 Q 262.75 44.0 356 44.0" fill="none" stroke="red" stroke-width="1" /><path d="M 169.5 14.0 Q 262.75 74.0 356 74.0" fill="none" stroke="red" stroke-width="1" /><path d="M 145.5 104.0 Q 250.75 104.0 356 104.0" fill="none" stroke="red" stroke-width="1" /><path d="M 145.5 104.0 Q 250.75 134.0 356 134.0" fill="none" stroke="red" stroke-width="1" /><path d="M 145.5 104.0 Q 250.75 164.0 356 164.0" fill="none" stroke="red" stroke-width="1" /></svg>